<?xml version="1.0" encoding="iso-8859-1"?>
<!-- Generator: Adobe Illustrator 16.0.0, SVG Export Plug-In . SVG Version: 6.00 Build 0)  -->
<!DOCTYPE svg PUBLIC "-//W3C//DTD SVG 1.1//EN" "http://www.w3.org/Graphics/SVG/1.1/DTD/svg11.dtd">
<!-- License: CC0. Made by SVG Repo: https://www.svgrepo.com/svg/4583/scarecrow-head-wearing-business-attire -->
<svg version="1.1" id="Capa_1" xmlns="http://www.w3.org/2000/svg" xmlns:xlink="http://www.w3.org/1999/xlink" x="0px" y="0px"
	 width="353.885px" height="353.884px" viewBox="0 0 353.885 353.884" style="enable-background:new 0 0 353.885 353.884;"
	 xml:space="preserve">
<g>
	<g>
		<path d="M138.638,0.005c6.08,0,11.822,1.969,16.875,5.864c0.386,0.236,9.654,5.753,21.467,5.753
			c6.965,0,13.375-1.914,19.041-5.699c0.114-0.065,0.241-0.139,0.346-0.226C201.165,1.974,206.917,0,212.996,0
			c14.824,0,26.876,11.859,26.876,26.431c0,7.31-2.991,14.122-8.44,19.168c-0.368,0.35-0.776,0.672-1.196,0.995
			c-0.104,0.086-0.608,0.499-0.693,0.59c-7.37,7.821-29.47,13.289-53.728,13.289c-23.927,0-45.932-5.38-53.774-13.32
			c-0.963-0.753-1.897-1.538-2.754-2.406c-4.853-4.959-7.53-11.463-7.53-18.316C111.761,11.864,123.819,0.005,138.638,0.005z"/>
		<g>
			<path d="M96.585,146.152c1.861,0.708,3.769,1.354,5.667,2.01c1.43,0.494,2.837,1.016,4.289,1.478
				c1.941,0.619,3.935,1.163,5.913,1.727c1.473,0.413,2.924,0.864,4.415,1.247c2.026,0.52,4.099,0.966,6.165,1.436
				c1.493,0.339,2.971,0.709,4.489,1.016c2.123,0.428,4.294,0.775,6.448,1.145c1.502,0.252,2.985,0.548,4.494,0.774
				c2.26,0.333,4.554,0.584,6.838,0.848c1.457,0.173,2.892,0.389,4.364,0.527c2.518,0.247,5.065,0.399,7.611,0.56
				c1.276,0.081,2.528,0.209,3.806,0.275c3.84,0.181,7.704,0.278,11.596,0.278s7.762-0.097,11.591-0.278
				c1.271-0.061,2.535-0.189,3.8-0.275c2.547-0.166,5.093-0.318,7.612-0.564c1.47-0.145,2.908-0.36,4.373-0.527
				c2.282-0.269,4.594-0.515,6.829-0.848c1.512-0.226,3.008-0.522,4.509-0.774c2.137-0.365,4.326-0.717,6.442-1.145
				c1.512-0.307,2.997-0.679,4.493-1.015c2.062-0.465,4.142-0.917,6.157-1.436c1.501-0.389,2.955-0.835,4.42-1.252
				c1.979-0.562,3.963-1.107,5.916-1.722c1.454-0.462,2.861-0.984,4.295-1.478c1.904-0.656,3.81-1.302,5.669-2.01
				c1.405-0.539,2.771-1.129,4.147-1.699c1.454-0.608,2.928-1.209,4.366-1.851c-3.202-13.813-9.816-26.73-19.244-37.545
				c-0.314,0.065-0.662,0.107-0.977,0.173c-4.409,0.913-8.977,1.735-13.701,2.444c-0.41,0.06-0.818,0.113-1.233,0.173
				c-4.851,0.709-9.827,1.318-14.93,1.811c-0.314,0.031-0.623,0.056-0.945,0.082c-5.243,0.488-10.577,0.872-16.015,1.124
				c-0.2,0.01-0.388,0.01-0.572,0.021c-5.586,0.252-11.257,0.388-16.992,0.388c-5.73,0-11.402-0.142-16.988-0.388
				c-0.191-0.011-0.386-0.011-0.58-0.021c-5.439-0.252-10.782-0.64-16.019-1.124c-0.312-0.026-0.627-0.05-0.934-0.082
				c-5.113-0.488-10.09-1.102-14.945-1.811c-0.402-0.06-0.811-0.108-1.208-0.165c-4.743-0.717-9.317-1.539-13.75-2.457
				c-0.297-0.061-0.63-0.102-0.924-0.167c-9.446,10.827-16.063,23.737-19.25,37.545c1.433,0.641,2.895,1.248,4.365,1.851
				C93.824,145.023,95.184,145.613,96.585,146.152z"/>
			<path d="M258.445,148.023c-1.166,0.504-2.384,0.945-3.56,1.436c-1.563,0.644-3.117,1.294-4.714,1.903
				c-1.742,0.661-3.527,1.272-5.312,1.884c-1.617,0.555-3.212,1.125-4.84,1.641c-1.859,0.58-3.722,1.103-5.597,1.635
				c-1.648,0.462-3.26,0.945-4.924,1.37c-1.947,0.499-3.942,0.935-5.932,1.381c-1.638,0.372-3.254,0.769-4.924,1.102
				c-2.079,0.415-4.188,0.759-6.289,1.119c-1.616,0.273-3.223,0.585-4.861,0.829c-2.246,0.331-4.524,0.58-6.802,0.848
				c-1.534,0.179-3.046,0.4-4.589,0.549c-2.556,0.247-5.123,0.404-7.712,0.57c-1.307,0.086-2.598,0.214-3.92,0.28
				c-3.905,0.186-7.836,0.289-11.801,0.289c-3.964,0-7.893-0.103-11.793-0.289c-1.333-0.066-2.646-0.194-3.974-0.28
				c-2.559-0.166-5.124-0.323-7.653-0.565c-1.554-0.149-3.076-0.37-4.62-0.554c-2.268-0.268-4.541-0.517-6.782-0.843
				c-1.635-0.243-3.231-0.548-4.843-0.823c-2.107-0.36-4.226-0.704-6.307-1.119c-1.643-0.328-3.257-0.718-4.879-1.086
				c-2-0.452-4.01-0.888-5.979-1.392c-1.627-0.419-3.218-0.892-4.827-1.343c-1.914-0.544-3.827-1.077-5.708-1.667
				c-1.591-0.499-3.139-1.053-4.704-1.591c-1.837-0.635-3.677-1.263-5.477-1.945c-1.531-0.583-3.032-1.21-4.536-1.83
				c-1.22-0.499-2.478-0.956-3.682-1.483c-0.005,0.037-0.011,0.076-0.017,0.113c-0.753,4.59-1.128,9.305-1.128,14.023
				c0,6.237,0.745,12.682,2.231,19.177c1.417,0.634,2.879,1.212,4.326,1.81c1.542,0.642,3.06,1.302,4.634,1.901
				c1.678,0.641,3.407,1.218,5.116,1.795c1.599,0.562,3.179,1.145,4.806,1.664c1.754,0.551,3.559,1.023,5.344,1.527
				c1.646,0.482,3.263,0.981,4.935,1.412c1.85,0.473,3.753,0.872,5.627,1.286c1.656,0.379,3.292,0.788,4.969,1.124
				c1.977,0.397,4.002,0.719,6.013,1.049c1.625,0.283,3.231,0.6,4.876,0.84c2.129,0.316,4.299,0.547,6.457,0.799
				c1.565,0.178,3.105,0.41,4.685,0.556c2.446,0.236,4.929,0.385,7.404,0.557c1.315,0.085,2.623,0.221,3.951,0.284
				c3.816,0.178,7.664,0.278,11.536,0.278c3.868,0,7.718-0.101,11.527-0.278c1.324-0.063,2.625-0.199,3.937-0.284
				c2.478-0.162,4.968-0.32,7.414-0.557c1.584-0.146,3.127-0.368,4.692-0.556c2.152-0.252,4.324-0.482,6.456-0.799
				c1.639-0.24,3.244-0.566,4.872-0.84c2.005-0.335,4.031-0.651,6.005-1.049c1.68-0.336,3.312-0.745,4.978-1.124
				c1.878-0.414,3.778-0.813,5.627-1.286c1.668-0.431,3.285-0.93,4.935-1.412c1.784-0.504,3.59-0.987,5.344-1.527
				c1.627-0.53,3.202-1.102,4.798-1.664c1.711-0.598,3.443-1.161,5.112-1.795c1.574-0.6,3.099-1.271,4.641-1.901
				c1.439-0.598,2.909-1.187,4.325-1.81c1.481-6.495,2.227-12.94,2.227-19.177c0-4.708-0.378-9.423-1.113-14.008
				C258.456,148.115,258.445,148.07,258.445,148.023z M162.119,184.443c-0.465,0.971-1.426,1.521-2.426,1.521
				c-0.386,0-0.784-0.088-1.16-0.268l-32.027-15.296c-1.338-0.64-1.902-2.246-1.265-3.585c0.64-1.339,2.236-1.903,3.585-1.265
				l32.027,15.302C162.192,181.503,162.757,183.1,162.119,184.443z M227.422,171.501l-28.002,14.18
				c-0.377,0.195-0.792,0.296-1.218,0.296c-0.975,0-1.92-0.548-2.393-1.465c-0.672-1.324-0.137-2.944,1.197-3.617l27.99-14.176
				c1.322-0.651,2.95-0.139,3.61,1.187C229.279,169.212,228.744,170.83,227.422,171.501z"/>
			<path d="M248.745,190.621c-1.849,0.684-3.718,1.34-5.606,1.971c-1.459,0.486-2.929,0.97-4.42,1.427
				c-1.922,0.594-3.874,1.145-5.838,1.685c-1.501,0.416-3.002,0.825-4.525,1.208c-2.005,0.498-4.031,0.961-6.078,1.402
				c-1.523,0.34-3.045,0.683-4.599,0.991c-2.09,0.393-4.22,0.762-6.342,1.119c-1.521,0.25-3.044,0.525-4.594,0.744
				c-2.235,0.337-4.503,0.578-6.76,0.835c-1.465,0.151-2.93,0.352-4.409,0.51c-2.52,0.236-5.046,0.399-7.586,0.556
				c-1.26,0.085-2.514,0.2-3.78,0.263c-3.824,0.168-7.664,0.279-11.538,0.279c-3.872,0-7.714-0.101-11.536-0.279
				c-1.258-0.062-2.499-0.178-3.754-0.263c-2.546-0.156-5.094-0.325-7.617-0.556c-1.472-0.136-2.919-0.336-4.375-0.504
				c-2.272-0.258-4.551-0.525-6.798-0.841c-1.533-0.219-3.034-0.494-4.548-0.74c-2.14-0.356-4.278-0.718-6.391-1.123
				c-1.539-0.309-3.047-0.646-4.569-0.981c-2.047-0.451-4.09-0.903-6.105-1.417c-1.518-0.378-3.011-0.787-4.507-1.203
				c-1.966-0.551-3.924-1.096-5.853-1.69c-1.483-0.455-2.945-0.935-4.407-1.421c-1.892-0.636-3.763-1.287-5.611-1.974
				c-1.436-0.537-2.856-1.077-4.271-1.639c-0.843-0.342-1.725-0.636-2.557-0.986c11.212,36.216,44.544,61.056,82.899,61.056
				c38.347,0,71.681-24.84,82.893-61.056c-0.834,0.34-1.707,0.634-2.566,0.986C251.6,189.541,250.183,190.091,248.745,190.621z"/>
			<path d="M234.014,50.471c-0.146,0.112-0.283,0.225-0.429,0.338c-8.578,9.029-31.739,15.045-57.771,15.045
				c-26.055,0-48.562-5.761-57.339-14.686c-0.538-0.398-1.16-0.918-1.79-1.488c-0.071-0.066-0.134-0.103-0.205-0.174
				C84.17,55.14,63.377,65.269,63.377,75.434c0,8.966,16.686,18.179,43.557,24.042c19.265,4.199,41.998,6.419,65.746,6.419
				c23.753,0,46.479-2.22,65.743-6.419c26.867-5.864,43.56-15.077,43.56-24.042C281.983,65.962,263.201,56.21,234.014,50.471z"/>
		</g>
		<path d="M157.662,352.955c0.509,0.583,1.248,0.93,2.032,0.93h34.042c0.782,0,1.556-0.347,2.059-0.967
			c0.52-0.603,0.74-1.407,0.588-2.188l-10.168-57.58c2.226-2.531,3.476-5.785,3.476-9.146c0-7.653-6.228-13.884-13.886-13.884
			c-7.656,0-13.885,6.23-13.885,13.884c0,3.392,1.21,6.572,3.436,9.092l-8.333,57.724
			C156.919,351.585,157.15,352.367,157.662,352.955z"/>
		<path d="M116.055,254.975c-0.084-0.798-0.525-1.533-1.203-1.974c-0.689-0.441-1.527-0.557-2.296-0.31
			c-42.137,13.554-70.45,52.414-70.45,96.715c0,1.485,1.205,2.688,2.688,2.688h98.885c0.038,0.005,0.082,0.005,0.108,0
			c1.483,0,2.688-1.202,2.688-2.688c0-1.155-0.728-2.138-1.743-2.52C127.963,335.827,118.352,276.896,116.055,254.975z"/>
		<path d="M241.332,252.692c-0.756-0.254-1.595-0.132-2.288,0.31c-0.683,0.44-1.124,1.176-1.208,1.974
			c-2.319,22.079-12.042,81.686-29.028,92.159c-1.019,0.618-1.501,1.862-1.187,3.022c0.335,1.155,1.396,1.948,2.592,1.948h98.88
			c1.48,0,2.686-1.213,2.686-2.688C311.789,305.106,283.475,266.24,241.332,252.692z"/>
	</g>
</g>
</svg>
